<mxfile host="app.diagrams.net" modified="2023-09-21T21:15:46.574Z" agent="Mozilla/5.0 (X11; Linux x86_64) AppleWebKit/537.36 (KHTML, like Gecko) Chrome/117.0.0.0 Safari/537.36" etag="7z_q_WHt-DzAJQPdIqVC" version="21.8.0" type="google">
  <diagram id="C5RBs43oDa-KdzZeNtuy" name="Page-1">
    <mxGraphModel grid="1" page="1" gridSize="10" guides="1" tooltips="1" connect="1" arrows="1" fold="1" pageScale="1" pageWidth="827" pageHeight="1169" math="0" shadow="0">
      <root>
        <mxCell id="WIyWlLk6GJQsqaUBKTNV-0" />
        <mxCell id="WIyWlLk6GJQsqaUBKTNV-1" parent="WIyWlLk6GJQsqaUBKTNV-0" />
        <mxCell id="CbwguKJzzTTXFDatvSPA-0" value="Product" style="swimlane;fontStyle=1;align=center;verticalAlign=top;childLayout=stackLayout;horizontal=1;startSize=26;horizontalStack=0;resizeParent=1;resizeParentMax=0;resizeLast=0;collapsible=1;marginBottom=0;whiteSpace=wrap;html=1;" vertex="1" parent="WIyWlLk6GJQsqaUBKTNV-1">
          <mxGeometry x="10" y="10" width="380" height="230" as="geometry" />
        </mxCell>
        <mxCell id="CbwguKJzzTTXFDatvSPA-1" value="-idProduct :int&lt;br&gt;-name :String&lt;br&gt;-description :String&lt;br&gt;-price :Price&lt;br&gt;-elaborated :Boolean&lt;br&gt;-category :Category" style="text;strokeColor=none;fillColor=none;align=left;verticalAlign=top;spacingLeft=4;spacingRight=4;overflow=hidden;rotatable=0;points=[[0,0.5],[1,0.5]];portConstraint=eastwest;whiteSpace=wrap;html=1;" vertex="1" parent="CbwguKJzzTTXFDatvSPA-0">
          <mxGeometry y="26" width="380" height="104" as="geometry" />
        </mxCell>
        <mxCell id="CbwguKJzzTTXFDatvSPA-2" value="" style="line;strokeWidth=1;fillColor=none;align=left;verticalAlign=middle;spacingTop=-1;spacingLeft=3;spacingRight=3;rotatable=0;labelPosition=right;points=[];portConstraint=eastwest;strokeColor=inherit;" vertex="1" parent="CbwguKJzzTTXFDatvSPA-0">
          <mxGeometry y="130" width="380" height="8" as="geometry" />
        </mxCell>
        <mxCell id="CbwguKJzzTTXFDatvSPA-3" value="+Product();&lt;br&gt;+Product(int idProduct,String name,String description,Price price,Boolean elaborated,Category category);&lt;br&gt;+Getters and setters();&lt;br&gt;+String toString();" style="text;strokeColor=none;fillColor=none;align=left;verticalAlign=top;spacingLeft=4;spacingRight=4;overflow=hidden;rotatable=0;points=[[0,0.5],[1,0.5]];portConstraint=eastwest;whiteSpace=wrap;html=1;" vertex="1" parent="CbwguKJzzTTXFDatvSPA-0">
          <mxGeometry y="138" width="380" height="92" as="geometry" />
        </mxCell>
        <mxCell id="qO8MAax4rt5QGivQVNBS-0" value="Price" style="swimlane;fontStyle=1;align=center;verticalAlign=top;childLayout=stackLayout;horizontal=1;startSize=26;horizontalStack=0;resizeParent=1;resizeParentMax=0;resizeLast=0;collapsible=1;marginBottom=0;whiteSpace=wrap;html=1;" vertex="1" parent="WIyWlLk6GJQsqaUBKTNV-1">
          <mxGeometry x="530" y="80" width="140" height="110" as="geometry" />
        </mxCell>
        <mxCell id="qO8MAax4rt5QGivQVNBS-1" value="-value :float" style="text;strokeColor=none;fillColor=none;align=left;verticalAlign=top;spacingLeft=4;spacingRight=4;overflow=hidden;rotatable=0;points=[[0,0.5],[1,0.5]];portConstraint=eastwest;whiteSpace=wrap;html=1;" vertex="1" parent="qO8MAax4rt5QGivQVNBS-0">
          <mxGeometry y="26" width="140" height="26" as="geometry" />
        </mxCell>
        <mxCell id="qO8MAax4rt5QGivQVNBS-2" value="" style="line;strokeWidth=1;fillColor=none;align=left;verticalAlign=middle;spacingTop=-1;spacingLeft=3;spacingRight=3;rotatable=0;labelPosition=right;points=[];portConstraint=eastwest;strokeColor=inherit;" vertex="1" parent="qO8MAax4rt5QGivQVNBS-0">
          <mxGeometry y="52" width="140" height="8" as="geometry" />
        </mxCell>
        <mxCell id="qO8MAax4rt5QGivQVNBS-3" value="+Price(float value);&lt;br&gt;+Getters and setters();" style="text;strokeColor=none;fillColor=none;align=left;verticalAlign=top;spacingLeft=4;spacingRight=4;overflow=hidden;rotatable=0;points=[[0,0.5],[1,0.5]];portConstraint=eastwest;whiteSpace=wrap;html=1;" vertex="1" parent="qO8MAax4rt5QGivQVNBS-0">
          <mxGeometry y="60" width="140" height="50" as="geometry" />
        </mxCell>
        <mxCell id="qO8MAax4rt5QGivQVNBS-4" value="Category" style="swimlane;fontStyle=1;align=center;verticalAlign=top;childLayout=stackLayout;horizontal=1;startSize=26;horizontalStack=0;resizeParent=1;resizeParentMax=0;resizeLast=0;collapsible=1;marginBottom=0;whiteSpace=wrap;html=1;" vertex="1" parent="WIyWlLk6GJQsqaUBKTNV-1">
          <mxGeometry x="440" y="270" width="230" height="140" as="geometry" />
        </mxCell>
        <mxCell id="qO8MAax4rt5QGivQVNBS-5" value="-idCategory :int&lt;br&gt;-name :String" style="text;strokeColor=none;fillColor=none;align=left;verticalAlign=top;spacingLeft=4;spacingRight=4;overflow=hidden;rotatable=0;points=[[0,0.5],[1,0.5]];portConstraint=eastwest;whiteSpace=wrap;html=1;" vertex="1" parent="qO8MAax4rt5QGivQVNBS-4">
          <mxGeometry y="26" width="230" height="44" as="geometry" />
        </mxCell>
        <mxCell id="qO8MAax4rt5QGivQVNBS-6" value="" style="line;strokeWidth=1;fillColor=none;align=left;verticalAlign=middle;spacingTop=-1;spacingLeft=3;spacingRight=3;rotatable=0;labelPosition=right;points=[];portConstraint=eastwest;strokeColor=inherit;" vertex="1" parent="qO8MAax4rt5QGivQVNBS-4">
          <mxGeometry y="70" width="230" height="8" as="geometry" />
        </mxCell>
        <mxCell id="qO8MAax4rt5QGivQVNBS-7" value="+Category();&lt;br&gt;+Category(int idCategory,String name);&lt;br&gt;+Getters and setters);" style="text;strokeColor=none;fillColor=none;align=left;verticalAlign=top;spacingLeft=4;spacingRight=4;overflow=hidden;rotatable=0;points=[[0,0.5],[1,0.5]];portConstraint=eastwest;whiteSpace=wrap;html=1;" vertex="1" parent="qO8MAax4rt5QGivQVNBS-4">
          <mxGeometry y="78" width="230" height="62" as="geometry" />
        </mxCell>
        <mxCell id="qO8MAax4rt5QGivQVNBS-8" value="Waiter" style="swimlane;fontStyle=1;align=center;verticalAlign=top;childLayout=stackLayout;horizontal=1;startSize=26;horizontalStack=0;resizeParent=1;resizeParentMax=0;resizeLast=0;collapsible=1;marginBottom=0;whiteSpace=wrap;html=1;" vertex="1" parent="WIyWlLk6GJQsqaUBKTNV-1">
          <mxGeometry x="274" y="920" width="280" height="150" as="geometry" />
        </mxCell>
        <mxCell id="qO8MAax4rt5QGivQVNBS-9" value="-idWaiter :int&lt;br&gt;-name :String&lt;br&gt;-lastName :String" style="text;strokeColor=none;fillColor=none;align=left;verticalAlign=top;spacingLeft=4;spacingRight=4;overflow=hidden;rotatable=0;points=[[0,0.5],[1,0.5]];portConstraint=eastwest;whiteSpace=wrap;html=1;" vertex="1" parent="qO8MAax4rt5QGivQVNBS-8">
          <mxGeometry y="26" width="280" height="54" as="geometry" />
        </mxCell>
        <mxCell id="qO8MAax4rt5QGivQVNBS-10" value="" style="line;strokeWidth=1;fillColor=none;align=left;verticalAlign=middle;spacingTop=-1;spacingLeft=3;spacingRight=3;rotatable=0;labelPosition=right;points=[];portConstraint=eastwest;strokeColor=inherit;" vertex="1" parent="qO8MAax4rt5QGivQVNBS-8">
          <mxGeometry y="80" width="280" height="8" as="geometry" />
        </mxCell>
        <mxCell id="qO8MAax4rt5QGivQVNBS-11" value="+Waiter(int idWaiter,String name,String lastName);&lt;br&gt;+Getters and setters();&lt;br&gt;+String toString();" style="text;strokeColor=none;fillColor=none;align=left;verticalAlign=top;spacingLeft=4;spacingRight=4;overflow=hidden;rotatable=0;points=[[0,0.5],[1,0.5]];portConstraint=eastwest;whiteSpace=wrap;html=1;" vertex="1" parent="qO8MAax4rt5QGivQVNBS-8">
          <mxGeometry y="88" width="280" height="62" as="geometry" />
        </mxCell>
        <mxCell id="qO8MAax4rt5QGivQVNBS-12" value="Item" style="swimlane;fontStyle=1;align=center;verticalAlign=top;childLayout=stackLayout;horizontal=1;startSize=26;horizontalStack=0;resizeParent=1;resizeParentMax=0;resizeLast=0;collapsible=1;marginBottom=0;whiteSpace=wrap;html=1;" vertex="1" parent="WIyWlLk6GJQsqaUBKTNV-1">
          <mxGeometry x="10" y="390" width="220" height="120" as="geometry" />
        </mxCell>
        <mxCell id="qO8MAax4rt5QGivQVNBS-13" value="-Product product&lt;br&gt;-int totalProduct" style="text;strokeColor=none;fillColor=none;align=left;verticalAlign=top;spacingLeft=4;spacingRight=4;overflow=hidden;rotatable=0;points=[[0,0.5],[1,0.5]];portConstraint=eastwest;whiteSpace=wrap;html=1;" vertex="1" parent="qO8MAax4rt5QGivQVNBS-12">
          <mxGeometry y="26" width="220" height="44" as="geometry" />
        </mxCell>
        <mxCell id="qO8MAax4rt5QGivQVNBS-14" value="" style="line;strokeWidth=1;fillColor=none;align=left;verticalAlign=middle;spacingTop=-1;spacingLeft=3;spacingRight=3;rotatable=0;labelPosition=right;points=[];portConstraint=eastwest;strokeColor=inherit;" vertex="1" parent="qO8MAax4rt5QGivQVNBS-12">
          <mxGeometry y="70" width="220" height="8" as="geometry" />
        </mxCell>
        <mxCell id="qO8MAax4rt5QGivQVNBS-15" value="+Item(Product product,int totalProduct);&lt;br&gt;+Getters and setters();" style="text;strokeColor=none;fillColor=none;align=left;verticalAlign=top;spacingLeft=4;spacingRight=4;overflow=hidden;rotatable=0;points=[[0,0.5],[1,0.5]];portConstraint=eastwest;whiteSpace=wrap;html=1;" vertex="1" parent="qO8MAax4rt5QGivQVNBS-12">
          <mxGeometry y="78" width="220" height="42" as="geometry" />
        </mxCell>
        <mxCell id="qO8MAax4rt5QGivQVNBS-17" value="Order" style="swimlane;fontStyle=1;align=center;verticalAlign=top;childLayout=stackLayout;horizontal=1;startSize=26;horizontalStack=0;resizeParent=1;resizeParentMax=0;resizeLast=0;collapsible=1;marginBottom=0;whiteSpace=wrap;html=1;" vertex="1" parent="WIyWlLk6GJQsqaUBKTNV-1">
          <mxGeometry x="270" y="600" width="360" height="210" as="geometry" />
        </mxCell>
        <mxCell id="qO8MAax4rt5QGivQVNBS-18" value="-amountPaid :float&lt;br&gt;-dateOpen :Date&lt;br&gt;-dateClose :Date&lt;br&gt;-items :List&amp;lt;Item&amp;gt;" style="text;strokeColor=none;fillColor=none;align=left;verticalAlign=top;spacingLeft=4;spacingRight=4;overflow=hidden;rotatable=0;points=[[0,0.5],[1,0.5]];portConstraint=eastwest;whiteSpace=wrap;html=1;" vertex="1" parent="qO8MAax4rt5QGivQVNBS-17">
          <mxGeometry y="26" width="360" height="74" as="geometry" />
        </mxCell>
        <mxCell id="qO8MAax4rt5QGivQVNBS-19" value="" style="line;strokeWidth=1;fillColor=none;align=left;verticalAlign=middle;spacingTop=-1;spacingLeft=3;spacingRight=3;rotatable=0;labelPosition=right;points=[];portConstraint=eastwest;strokeColor=inherit;" vertex="1" parent="qO8MAax4rt5QGivQVNBS-17">
          <mxGeometry y="100" width="360" height="8" as="geometry" />
        </mxCell>
        <mxCell id="qO8MAax4rt5QGivQVNBS-20" value="+Order();&lt;br&gt;+Order(List&amp;lt;Item&amp;gt; items);&lt;br&gt;+Getters and setters();&lt;br&gt;+void addItem(Item item);&lt;br&gt;+void removeItem(int index);&lt;br&gt;+Item getItem(int index);" style="text;strokeColor=none;fillColor=none;align=left;verticalAlign=top;spacingLeft=4;spacingRight=4;overflow=hidden;rotatable=0;points=[[0,0.5],[1,0.5]];portConstraint=eastwest;whiteSpace=wrap;html=1;" vertex="1" parent="qO8MAax4rt5QGivQVNBS-17">
          <mxGeometry y="108" width="360" height="102" as="geometry" />
        </mxCell>
        <mxCell id="qO8MAax4rt5QGivQVNBS-21" value="Table" style="swimlane;fontStyle=1;align=center;verticalAlign=top;childLayout=stackLayout;horizontal=1;startSize=26;horizontalStack=0;resizeParent=1;resizeParentMax=0;resizeLast=0;collapsible=1;marginBottom=0;whiteSpace=wrap;html=1;" vertex="1" parent="WIyWlLk6GJQsqaUBKTNV-1">
          <mxGeometry x="710" y="600" width="300" height="160" as="geometry" />
        </mxCell>
        <mxCell id="qO8MAax4rt5QGivQVNBS-22" value="-idTable :int&lt;br&gt;-cutlery :int&lt;br&gt;-order :Order&lt;br&gt;-waiter :Waiter" style="text;strokeColor=none;fillColor=none;align=left;verticalAlign=top;spacingLeft=4;spacingRight=4;overflow=hidden;rotatable=0;points=[[0,0.5],[1,0.5]];portConstraint=eastwest;whiteSpace=wrap;html=1;" vertex="1" parent="qO8MAax4rt5QGivQVNBS-21">
          <mxGeometry y="26" width="300" height="64" as="geometry" />
        </mxCell>
        <mxCell id="qO8MAax4rt5QGivQVNBS-23" value="" style="line;strokeWidth=1;fillColor=none;align=left;verticalAlign=middle;spacingTop=-1;spacingLeft=3;spacingRight=3;rotatable=0;labelPosition=right;points=[];portConstraint=eastwest;strokeColor=inherit;" vertex="1" parent="qO8MAax4rt5QGivQVNBS-21">
          <mxGeometry y="90" width="300" height="8" as="geometry" />
        </mxCell>
        <mxCell id="qO8MAax4rt5QGivQVNBS-24" value="+Table(int idTable,int cutlery);&lt;br&gt;+Getters and setters();&lt;br&gt;+String toString();" style="text;strokeColor=none;fillColor=none;align=left;verticalAlign=top;spacingLeft=4;spacingRight=4;overflow=hidden;rotatable=0;points=[[0,0.5],[1,0.5]];portConstraint=eastwest;whiteSpace=wrap;html=1;" vertex="1" parent="qO8MAax4rt5QGivQVNBS-21">
          <mxGeometry y="98" width="300" height="62" as="geometry" />
        </mxCell>
        <mxCell id="qO8MAax4rt5QGivQVNBS-25" value="CategoryController" style="swimlane;fontStyle=1;align=center;verticalAlign=top;childLayout=stackLayout;horizontal=1;startSize=26;horizontalStack=0;resizeParent=1;resizeParentMax=0;resizeLast=0;collapsible=1;marginBottom=0;whiteSpace=wrap;html=1;" vertex="1" parent="WIyWlLk6GJQsqaUBKTNV-1">
          <mxGeometry x="910" y="250" width="330" height="130" as="geometry" />
        </mxCell>
        <mxCell id="qO8MAax4rt5QGivQVNBS-26" value="-categories :List&amp;lt;Category&amp;gt;" style="text;strokeColor=none;fillColor=none;align=left;verticalAlign=top;spacingLeft=4;spacingRight=4;overflow=hidden;rotatable=0;points=[[0,0.5],[1,0.5]];portConstraint=eastwest;whiteSpace=wrap;html=1;" vertex="1" parent="qO8MAax4rt5QGivQVNBS-25">
          <mxGeometry y="26" width="330" height="26" as="geometry" />
        </mxCell>
        <mxCell id="qO8MAax4rt5QGivQVNBS-27" value="" style="line;strokeWidth=1;fillColor=none;align=left;verticalAlign=middle;spacingTop=-1;spacingLeft=3;spacingRight=3;rotatable=0;labelPosition=right;points=[];portConstraint=eastwest;strokeColor=inherit;" vertex="1" parent="qO8MAax4rt5QGivQVNBS-25">
          <mxGeometry y="52" width="330" height="8" as="geometry" />
        </mxCell>
        <mxCell id="qO8MAax4rt5QGivQVNBS-28" value="+CategoryController();&lt;br&gt;+void addCategory(int idCategory,String name);&lt;br&gt;+void removeCategory(int index);&lt;br&gt;+Category getCategory(int index);" style="text;strokeColor=none;fillColor=none;align=left;verticalAlign=top;spacingLeft=4;spacingRight=4;overflow=hidden;rotatable=0;points=[[0,0.5],[1,0.5]];portConstraint=eastwest;whiteSpace=wrap;html=1;" vertex="1" parent="qO8MAax4rt5QGivQVNBS-25">
          <mxGeometry y="60" width="330" height="70" as="geometry" />
        </mxCell>
        <mxCell id="qO8MAax4rt5QGivQVNBS-34" value="WaiterController" style="swimlane;fontStyle=1;align=center;verticalAlign=top;childLayout=stackLayout;horizontal=1;startSize=26;horizontalStack=0;resizeParent=1;resizeParentMax=0;resizeLast=0;collapsible=1;marginBottom=0;whiteSpace=wrap;html=1;" vertex="1" parent="WIyWlLk6GJQsqaUBKTNV-1">
          <mxGeometry x="910" y="920" width="330" height="130" as="geometry" />
        </mxCell>
        <mxCell id="qO8MAax4rt5QGivQVNBS-35" value="-waiters :List&amp;lt;Waiter&amp;gt;" style="text;strokeColor=none;fillColor=none;align=left;verticalAlign=top;spacingLeft=4;spacingRight=4;overflow=hidden;rotatable=0;points=[[0,0.5],[1,0.5]];portConstraint=eastwest;whiteSpace=wrap;html=1;" vertex="1" parent="qO8MAax4rt5QGivQVNBS-34">
          <mxGeometry y="26" width="330" height="26" as="geometry" />
        </mxCell>
        <mxCell id="qO8MAax4rt5QGivQVNBS-36" value="" style="line;strokeWidth=1;fillColor=none;align=left;verticalAlign=middle;spacingTop=-1;spacingLeft=3;spacingRight=3;rotatable=0;labelPosition=right;points=[];portConstraint=eastwest;strokeColor=inherit;" vertex="1" parent="qO8MAax4rt5QGivQVNBS-34">
          <mxGeometry y="52" width="330" height="8" as="geometry" />
        </mxCell>
        <mxCell id="qO8MAax4rt5QGivQVNBS-37" value="+WaiterController();&lt;br&gt;+void addWaiter(int idWaiter,String name,String lastName);&lt;br&gt;+void removeWaiter(int index);&lt;br&gt;+Waiter getWaiter(int index);" style="text;strokeColor=none;fillColor=none;align=left;verticalAlign=top;spacingLeft=4;spacingRight=4;overflow=hidden;rotatable=0;points=[[0,0.5],[1,0.5]];portConstraint=eastwest;whiteSpace=wrap;html=1;" vertex="1" parent="qO8MAax4rt5QGivQVNBS-34">
          <mxGeometry y="60" width="330" height="70" as="geometry" />
        </mxCell>
        <mxCell id="qO8MAax4rt5QGivQVNBS-38" value="ProductController" style="swimlane;fontStyle=1;align=center;verticalAlign=top;childLayout=stackLayout;horizontal=1;startSize=26;horizontalStack=0;resizeParent=1;resizeParentMax=0;resizeLast=0;collapsible=1;marginBottom=0;whiteSpace=wrap;html=1;" vertex="1" parent="WIyWlLk6GJQsqaUBKTNV-1">
          <mxGeometry x="910" y="10" width="470" height="180" as="geometry" />
        </mxCell>
        <mxCell id="qO8MAax4rt5QGivQVNBS-39" value="-products :List&amp;lt;Product&amp;gt;&lt;br&gt;-categoryCont :CategoryController" style="text;strokeColor=none;fillColor=none;align=left;verticalAlign=top;spacingLeft=4;spacingRight=4;overflow=hidden;rotatable=0;points=[[0,0.5],[1,0.5]];portConstraint=eastwest;whiteSpace=wrap;html=1;" vertex="1" parent="qO8MAax4rt5QGivQVNBS-38">
          <mxGeometry y="26" width="470" height="44" as="geometry" />
        </mxCell>
        <mxCell id="qO8MAax4rt5QGivQVNBS-40" value="" style="line;strokeWidth=1;fillColor=none;align=left;verticalAlign=middle;spacingTop=-1;spacingLeft=3;spacingRight=3;rotatable=0;labelPosition=right;points=[];portConstraint=eastwest;strokeColor=inherit;" vertex="1" parent="qO8MAax4rt5QGivQVNBS-38">
          <mxGeometry y="70" width="470" height="8" as="geometry" />
        </mxCell>
        <mxCell id="qO8MAax4rt5QGivQVNBS-41" value="+ProductController();&lt;br&gt;+CategoryController getCategoryController();&lt;br&gt;+void addProduct(int idProduct,String name,String description,float price,Boolean elaborated,Category category);&lt;br&gt;+void removeItem(int index);&lt;br&gt;+Product getProduct(int index);" style="text;strokeColor=none;fillColor=none;align=left;verticalAlign=top;spacingLeft=4;spacingRight=4;overflow=hidden;rotatable=0;points=[[0,0.5],[1,0.5]];portConstraint=eastwest;whiteSpace=wrap;html=1;" vertex="1" parent="qO8MAax4rt5QGivQVNBS-38">
          <mxGeometry y="78" width="470" height="102" as="geometry" />
        </mxCell>
        <mxCell id="qO8MAax4rt5QGivQVNBS-42" value="TableController" style="swimlane;fontStyle=1;align=center;verticalAlign=top;childLayout=stackLayout;horizontal=1;startSize=26;horizontalStack=0;resizeParent=1;resizeParentMax=0;resizeLast=0;collapsible=1;marginBottom=0;whiteSpace=wrap;html=1;" vertex="1" parent="WIyWlLk6GJQsqaUBKTNV-1">
          <mxGeometry x="1340" y="570" width="230" height="170" as="geometry" />
        </mxCell>
        <mxCell id="qO8MAax4rt5QGivQVNBS-43" value="-tables :List&amp;lt;Table&amp;gt;&lt;br&gt;-waiterCont :WaiterController" style="text;strokeColor=none;fillColor=none;align=left;verticalAlign=top;spacingLeft=4;spacingRight=4;overflow=hidden;rotatable=0;points=[[0,0.5],[1,0.5]];portConstraint=eastwest;whiteSpace=wrap;html=1;" vertex="1" parent="qO8MAax4rt5QGivQVNBS-42">
          <mxGeometry y="26" width="230" height="44" as="geometry" />
        </mxCell>
        <mxCell id="qO8MAax4rt5QGivQVNBS-44" value="" style="line;strokeWidth=1;fillColor=none;align=left;verticalAlign=middle;spacingTop=-1;spacingLeft=3;spacingRight=3;rotatable=0;labelPosition=right;points=[];portConstraint=eastwest;strokeColor=inherit;" vertex="1" parent="qO8MAax4rt5QGivQVNBS-42">
          <mxGeometry y="70" width="230" height="8" as="geometry" />
        </mxCell>
        <mxCell id="qO8MAax4rt5QGivQVNBS-45" value="+TableController();&lt;br&gt;+WaiterController getWaiterController();&lt;br&gt;+void addTable(int idTable,int cutlery);&lt;br&gt;+void removeTable(int index);&lt;br&gt;+Table getTable(int index);" style="text;strokeColor=none;fillColor=none;align=left;verticalAlign=top;spacingLeft=4;spacingRight=4;overflow=hidden;rotatable=0;points=[[0,0.5],[1,0.5]];portConstraint=eastwest;whiteSpace=wrap;html=1;" vertex="1" parent="qO8MAax4rt5QGivQVNBS-42">
          <mxGeometry y="78" width="230" height="92" as="geometry" />
        </mxCell>
        <mxCell id="qO8MAax4rt5QGivQVNBS-46" value="" style="endArrow=diamondThin;endFill=1;endSize=24;html=1;rounded=0;exitX=-0.009;exitY=0.076;exitDx=0;exitDy=0;exitPerimeter=0;entryX=1;entryY=0.5;entryDx=0;entryDy=0;" edge="1" parent="WIyWlLk6GJQsqaUBKTNV-1" source="qO8MAax4rt5QGivQVNBS-0" target="CbwguKJzzTTXFDatvSPA-1">
          <mxGeometry width="160" relative="1" as="geometry">
            <mxPoint x="390" y="40" as="sourcePoint" />
            <mxPoint x="400" y="20" as="targetPoint" />
            <Array as="points" />
          </mxGeometry>
        </mxCell>
        <mxCell id="qO8MAax4rt5QGivQVNBS-47" value="" style="endArrow=diamondThin;endFill=1;endSize=24;html=1;rounded=0;exitX=0.181;exitY=-0.031;exitDx=0;exitDy=0;exitPerimeter=0;entryX=1;entryY=0.76;entryDx=0;entryDy=0;entryPerimeter=0;" edge="1" parent="WIyWlLk6GJQsqaUBKTNV-1">
          <mxGeometry width="160" relative="1" as="geometry">
            <mxPoint x="481.6300000000001" y="270.00000000000006" as="sourcePoint" />
            <mxPoint x="390" y="119.37999999999997" as="targetPoint" />
            <Array as="points">
              <mxPoint x="480" y="124.34" />
            </Array>
          </mxGeometry>
        </mxCell>
        <mxCell id="qO8MAax4rt5QGivQVNBS-48" value="" style="endArrow=diamondThin;endFill=1;endSize=24;html=1;rounded=0;exitX=0.316;exitY=1.049;exitDx=0;exitDy=0;exitPerimeter=0;" edge="1" parent="WIyWlLk6GJQsqaUBKTNV-1">
          <mxGeometry width="160" relative="1" as="geometry">
            <mxPoint x="130.07999999999993" y="239.99800000000005" as="sourcePoint" />
            <mxPoint x="130" y="385.49" as="targetPoint" />
          </mxGeometry>
        </mxCell>
        <mxCell id="qO8MAax4rt5QGivQVNBS-49" value="" style="endArrow=diamondThin;endFill=0;endSize=24;html=1;rounded=0;entryX=0;entryY=0.5;entryDx=0;entryDy=0;exitX=0.999;exitY=0.115;exitDx=0;exitDy=0;exitPerimeter=0;" edge="1" parent="WIyWlLk6GJQsqaUBKTNV-1" source="qO8MAax4rt5QGivQVNBS-4">
          <mxGeometry width="160" relative="1" as="geometry">
            <mxPoint x="670" y="318.99999999999955" as="sourcePoint" />
            <mxPoint x="910" y="290" as="targetPoint" />
            <Array as="points" />
          </mxGeometry>
        </mxCell>
        <mxCell id="qO8MAax4rt5QGivQVNBS-50" value="" style="endArrow=diamondThin;endFill=0;endSize=24;html=1;rounded=0;entryX=0;entryY=0.5;entryDx=0;entryDy=0;exitX=1.006;exitY=0.063;exitDx=0;exitDy=0;exitPerimeter=0;" edge="1" parent="WIyWlLk6GJQsqaUBKTNV-1" source="CbwguKJzzTTXFDatvSPA-0">
          <mxGeometry width="160" relative="1" as="geometry">
            <mxPoint x="394.55999999999995" y="39.9959999999998" as="sourcePoint" />
            <mxPoint x="910" y="51.18" as="targetPoint" />
            <Array as="points" />
          </mxGeometry>
        </mxCell>
        <mxCell id="qO8MAax4rt5QGivQVNBS-52" value="" style="endArrow=diamondThin;endFill=0;endSize=24;html=1;rounded=0;exitX=1.005;exitY=0.114;exitDx=0;exitDy=0;exitPerimeter=0;entryX=-0.004;entryY=0.7;entryDx=0;entryDy=0;entryPerimeter=0;" edge="1" parent="WIyWlLk6GJQsqaUBKTNV-1" source="qO8MAax4rt5QGivQVNBS-12" target="qO8MAax4rt5QGivQVNBS-18">
          <mxGeometry width="160" relative="1" as="geometry">
            <mxPoint x="70" y="574.41" as="sourcePoint" />
            <mxPoint x="320" y="540" as="targetPoint" />
            <Array as="points">
              <mxPoint x="250" y="404" />
              <mxPoint x="240" y="670" />
            </Array>
          </mxGeometry>
        </mxCell>
        <mxCell id="qO8MAax4rt5QGivQVNBS-53" value="" style="endArrow=diamondThin;endFill=1;endSize=24;html=1;rounded=0;exitX=1.009;exitY=0.051;exitDx=0;exitDy=0;exitPerimeter=0;" edge="1" parent="WIyWlLk6GJQsqaUBKTNV-1" source="qO8MAax4rt5QGivQVNBS-17">
          <mxGeometry width="160" relative="1" as="geometry">
            <mxPoint x="550" y="660" as="sourcePoint" />
            <mxPoint x="710" y="660" as="targetPoint" />
            <Array as="points">
              <mxPoint x="660" y="611" />
              <mxPoint x="660" y="660" />
            </Array>
          </mxGeometry>
        </mxCell>
        <mxCell id="qO8MAax4rt5QGivQVNBS-54" value="" style="endArrow=diamondThin;endFill=1;endSize=24;html=1;rounded=0;entryX=0;entryY=0.844;entryDx=0;entryDy=0;entryPerimeter=0;" edge="1" parent="WIyWlLk6GJQsqaUBKTNV-1">
          <mxGeometry width="160" relative="1" as="geometry">
            <mxPoint x="554" y="929.98" as="sourcePoint" />
            <mxPoint x="710" y="679.9959999999996" as="targetPoint" />
            <Array as="points">
              <mxPoint x="660" y="930" />
              <mxPoint x="660" y="680" />
            </Array>
          </mxGeometry>
        </mxCell>
        <mxCell id="qO8MAax4rt5QGivQVNBS-55" value="" style="endArrow=diamondThin;endFill=0;endSize=24;html=1;rounded=0;" edge="1" parent="WIyWlLk6GJQsqaUBKTNV-1">
          <mxGeometry width="160" relative="1" as="geometry">
            <mxPoint x="660" y="930" as="sourcePoint" />
            <mxPoint x="910" y="959" as="targetPoint" />
          </mxGeometry>
        </mxCell>
        <mxCell id="qO8MAax4rt5QGivQVNBS-56" value="" style="endArrow=diamondThin;endFill=0;endSize=24;html=1;rounded=0;entryX=-0.026;entryY=0.295;entryDx=0;entryDy=0;entryPerimeter=0;" edge="1" parent="WIyWlLk6GJQsqaUBKTNV-1" target="qO8MAax4rt5QGivQVNBS-43">
          <mxGeometry width="160" relative="1" as="geometry">
            <mxPoint x="1010" y="610" as="sourcePoint" />
            <mxPoint x="1170" y="610" as="targetPoint" />
            <Array as="points">
              <mxPoint x="1090" y="610" />
            </Array>
          </mxGeometry>
        </mxCell>
        <mxCell id="qO8MAax4rt5QGivQVNBS-57" value="" style="endArrow=diamondThin;endFill=0;endSize=24;html=1;rounded=0;exitX=1.019;exitY=0.119;exitDx=0;exitDy=0;exitPerimeter=0;" edge="1" parent="WIyWlLk6GJQsqaUBKTNV-1" source="qO8MAax4rt5QGivQVNBS-34">
          <mxGeometry width="160" relative="1" as="geometry">
            <mxPoint x="1260" y="930" as="sourcePoint" />
            <mxPoint x="1340" y="630" as="targetPoint" />
            <Array as="points">
              <mxPoint x="1270" y="930" />
              <mxPoint x="1270" y="630" />
            </Array>
          </mxGeometry>
        </mxCell>
        <mxCell id="qO8MAax4rt5QGivQVNBS-58" value="" style="endArrow=diamondThin;endFill=0;endSize=24;html=1;rounded=0;exitX=-0.007;exitY=0.114;exitDx=0;exitDy=0;exitPerimeter=0;" edge="1" parent="WIyWlLk6GJQsqaUBKTNV-1" source="qO8MAax4rt5QGivQVNBS-25">
          <mxGeometry width="160" relative="1" as="geometry">
            <mxPoint x="840" y="130" as="sourcePoint" />
            <mxPoint x="910" y="70" as="targetPoint" />
            <Array as="points">
              <mxPoint x="840" y="265" />
              <mxPoint x="840" y="70" />
            </Array>
          </mxGeometry>
        </mxCell>
      </root>
    </mxGraphModel>
  </diagram>
</mxfile>
